<?xml version="1.0" encoding="UTF-8"?>
<svg width="48px" height="48px" viewBox="0 0 48 48" version="1.1" xmlns="http://www.w3.org/2000/svg" xmlns:xlink="http://www.w3.org/1999/xlink">
    <title>BB23619D-9D19-4409-8BFD-FFEADA89877B</title>
    <g id="UI-kit" stroke="none" stroke-width="1" fill="none" fill-rule="evenodd">
        <g id="Connectors" transform="translate(-320.000000, -2472.000000)" fill-rule="nonzero">
            <g id="aws-sns-simple-notification-service-seeklogo.com" transform="translate(320.000000, 2472.000000)">
                <polyline id="Path" fill="#995B80" points="18.5390625 43.4227344 13.582875 42.0363988 8.8951875 36.701402 14.7586875 36.5398999 18.5390625 43.4227344"></polyline>
                <polyline id="Path" fill="#995B80" points="7.078125 39.904496 4.2890625 39.1248694 1.6531875 36.1242612 4.8560625 35.598584 7.078125 39.904496"></polyline>
                <polyline id="Path" fill="#7B3F65" points="0 35.7469863 2.85075 36.3254371 3.2645625 35.5989583 3.2645625 10.9482713 2.85075 10.4690049 0 12.0892659 0 35.7469863"></polyline>
                <polyline id="Path" fill="#C17B9D" points="13.8624375 13.0451788 2.8515 10.4690049 2.8515 36.3254371 4.501125 36.1723563 7.078125 39.904496 9.065625 35.7490448 13.8624375 35.3040251 13.8624375 13.0451788"></polyline>
                <polyline id="Path" fill="#7B3F65" points="6.367125 37.0786769 11.2539375 38.0611637 11.5756875 37.304181 11.5756875 7.00653432 11.2539375 6.32066497 6.367125 8.79241458 6.367125 37.0786769"></polyline>
                <polyline id="Path" fill="#C17B9D" points="39.137625 15.2549319 11.2539375 6.32066497 11.2539375 38.0619123 14.482875 37.6472093 18.5390625 43.4227344 21.7501875 36.7137533 39.137625 34.4806076 39.137625 15.2549319"></polyline>
                <polyline id="Path" fill="#995B80" points="34.0936875 48 27.0500625 46.0303479 20.392125 38.4511642 29.0233125 38.3635825 34.0936875 48"></polyline>
                <polyline id="Path" fill="#7B3F65" points="16.7983125 39.102974 23.9851875 40.4909939 24.543375 40.0107918 24.543375 0.770456778 23.9851875 0 16.7983125 3.58523463 16.7983125 39.102974"></polyline>
                <polyline id="Path" fill="#C17B9D" points="48 11.9831574 23.9859375 0 23.9859375 40.4909939 28.222875 39.6436224 34.0936875 48 39.137625 37.4623146 39.1344375 37.4619403 48 35.6891599 48 11.9831574"></polyline>
            </g>
        </g>
    </g>
</svg>